<?xml version="1.0" standalone="no"?>
<!DOCTYPE svg PUBLIC "-//W3C//DTD SVG 20010904//EN"
 "http://www.w3.org/TR/2001/REC-SVG-20010904/DTD/svg10.dtd">
<svg version="1.0" xmlns="http://www.w3.org/2000/svg"
 width="1000.000000pt" height="1000.000000pt" viewBox="0 0 1000.000000 1000.000000"
 preserveAspectRatio="xMidYMid meet">
<metadata>
Created by potrace 1.11, written by Peter Selinger 2001-2013
</metadata>
<g transform="translate(0.000000,1000.000000) scale(0.100000,-0.100000)"
fill="#000000" stroke="none">
<path d="M4937 9855 c-1 -2 -76 -5 -167 -9 -91 -3 -176 -8 -190 -10 -14 -2
-59 -7 -100 -10 -41 -3 -86 -8 -100 -10 -26 -5 -74 -12 -137 -21 -21 -3 -83
-14 -138 -25 -55 -10 -111 -21 -125 -24 -56 -10 -281 -68 -393 -102 -395 -118
-817 -311 -1181 -542 -66 -42 -125 -80 -131 -84 -5 -5 -41 -30 -80 -57 -345
-242 -704 -580 -970 -911 -130 -162 -212 -276 -309 -430 -106 -167 -108 -170
-130 -210 -11 -19 -37 -66 -58 -105 -131 -236 -324 -699 -374 -895 -2 -8 -18
-64 -34 -125 -31 -107 -83 -335 -94 -405 -3 -19 -7 -44 -10 -55 -6 -29 -25
-161 -31 -220 -3 -27 -8 -61 -10 -75 -4 -23 -11 -102 -21 -235 -5 -60 -5 -534
0 -590 12 -143 34 -359 41 -395 2 -10 7 -40 11 -67 3 -26 8 -57 10 -68 3 -11
7 -36 10 -55 3 -19 7 -42 9 -50 2 -8 7 -31 10 -50 3 -19 15 -69 25 -110 10
-41 21 -86 24 -100 37 -178 170 -561 276 -795 51 -113 163 -332 225 -440 67
-116 242 -383 308 -470 26 -33 50 -65 54 -70 17 -22 138 -170 143 -175 3 -3
34 -39 69 -80 104 -121 335 -347 491 -481 583 -499 1353 -881 2095 -1040 33
-7 62 -13 65 -14 3 -1 25 -5 50 -9 25 -5 54 -10 65 -12 11 -3 36 -7 55 -10 19
-3 60 -9 90 -14 30 -5 82 -12 115 -15 33 -4 67 -8 75 -10 8 -2 58 -7 110 -11
52 -3 113 -8 135 -10 56 -5 509 -5 570 0 242 19 254 20 328 31 20 3 54 7 75
10 20 3 48 8 62 10 14 2 54 9 90 14 36 6 76 13 90 16 562 110 1093 316 1595
618 144 87 392 263 535 380 271 221 573 529 755 767 27 36 52 67 55 70 7 5 39
50 152 213 37 54 68 100 68 102 0 3 20 36 45 74 53 82 174 301 232 421 173
357 301 732 389 1145 18 85 52 299 59 370 3 38 8 72 10 75 1 3 6 50 10 105 4
55 9 118 11 140 5 49 5 515 0 570 -2 22 -7 81 -11 130 -7 92 -31 293 -39 331
-2 12 -7 39 -10 60 -6 37 -24 137 -32 179 -41 212 -172 653 -234 790 -5 11
-30 70 -56 130 -92 220 -215 455 -352 674 -36 58 -68 108 -72 111 -3 3 -18 25
-34 50 -126 197 -366 484 -590 705 -148 146 -163 160 -286 264 -106 90 -106
90 -195 157 -78 59 -343 244 -350 244 -2 0 -39 22 -82 48 -320 198 -711 371
-1107 491 -116 36 -378 101 -461 115 -16 3 -59 10 -95 17 -200 36 -375 55
-590 64 -178 8 -310 12 -313 10z"/>
</g>
</svg>
